#!OML:ASF X:\für Bonn\!DataBase\2005_08_10_Bjorn_Final\c3d\bjorn.ASF
:FULLY-SPECIFIED
:DEGREES
82
root 5.27025 23.296 15.9827 5.63259 -8.13443 360.917
lowerback 2.99573 0.333064 1.61246
upperback 8.06421 0.372375 0.590781
thorax 6.71765 0.254848 -0.275124
lowerneck -6.08485 -1.0246 0.463232
upperneck 5.90199 -1.21966 -2.7395
head 2.93152 -0.694946 -1.02125
rclavicle 2.34566e-014 1.59028e-014
rhumerus -37.3841 -20.3177 -77.057
rradius 84.1507
rwrist -15.8202
rhand -13.2808 15.3558
rfingers 7.12502
rthumb 12.8225 -14.2304
lclavicle 2.34566e-014 1.59028e-014
lhumerus -34.7266 -8.38561 86.0931
lradius 74.6729
lwrist 34.3589
lhand -33.1139 -13.1801
lfingers 7.12502
lthumb -6.32416 16.7055
rfemur -26.5572 2.3398 14.5615
rtibia 33.7108
rfoot 13.7911 13.6209
rtoes -12.2755
lfemur -23.8494 3.4879 -15.6218
ltibia 29.3174
lfoot 13.9206 -2.1709
ltoes -26.5781
83
root 5.28892 23.1404 16.1597 5.76367 -8.08093 360.945
lowerback 3.13019 0.320174 1.67499
upperback 8.18951 0.355016 0.588919
thorax 6.77632 0.250905 -0.312509
lowerneck -6.06141 -1.04686 0.482962
upperneck 5.31822 -1.25766 -2.83354
head 2.72827 -0.7128 -1.04942
rclavicle -9.14409e-015 9.54166e-015
rhumerus -37.6426 -20.7272 -77.3098
rradius 82.8406
rwrist -15.8037
rhand -13.0923 14.9211
rfingers 7.12502
rthumb 13.0043 -14.6536
lclavicle -9.14409e-015 9.54166e-015
lhumerus -35.2834 -8.74159 86.8062
lradius 73.4085
lwrist 34.8022
lhand -33.0726 -13.053
lfingers 7.12502
lthumb -6.28429 16.8338
rfemur -26.9504 2.83096 14.2988
rtibia 33.5744
rfoot 14.0432 13.4429
rtoes -10.8703
lfemur -24.46 3.47761 -15.4807
ltibia 29.2096
lfoot 13.4596 -2.09992
ltoes -26.8407
84
root 5.30759 22.9721 16.3374 5.94422 -8.02947 360.948
lowerback 3.20909 0.306225 1.72167
upperback 8.26675 0.33484 0.612823
thorax 6.8146 0.243395 -0.314168
lowerneck -5.9603 -1.06568 0.46385
upperneck 4.64964 -1.29635 -2.83624
head 2.48418 -0.727363 -1.03914
rclavicle -9.34288e-015 9.54166e-015
rhumerus -37.922 -21.1504 -77.4881
rradius 81.5322
rwrist -15.7399
rhand -12.8296 14.5309
rfingers 7.12502
rthumb 13.2575 -15.0275
lclavicle -9.34288e-015 9.54166e-015
lhumerus -35.8057 -9.00965 87.5487
lradius 72.0578
lwrist 35.2782
lhand -32.9773 -12.936
lfingers 7.12502
lthumb -6.19232 16.9535
rfemur -27.3886 3.34624 14.0377
rtibia 33.4903
rfoot 14.4742 13.2511
rtoes -9.81737
lfemur -25.0997 3.42034 -15.2959
ltibia 29.1737
lfoot 13.1392 -2.08156
ltoes -27.5025
85
root 5.32431 22.7897 16.5163 6.25628 -7.97184 360.934
lowerback 3.08755 0.31993 1.7936
upperback 8.31155 0.348857 0.612283
thorax 6.93421 0.255965 -0.353343
lowerneck -5.77387 -1.0814 0.442449
upperneck 3.85017 -1.3408 -2.71128
head 2.18383 -0.739476 -0.985372
rclavicle -2.42517e-014 2.0276e-014
rhumerus -38.1602 -21.6277 -77.676
rradius 80.1255
rwrist -15.6956
rhand -12.5871 14.1959
rfingers 7.12502
rthumb 13.4912 -15.3471
lclavicle -2.42517e-014 2.0276e-014
lhumerus -36.2412 -9.335 88.2419
lradius 70.6454
lwrist 35.8488
lhand -32.8432 -12.8687
lfingers 7.12502
lthumb -6.06286 17.0245
rfemur -27.9546 3.87038 13.7811
rtibia 33.4603
rfoot 15.0046 13.109
rtoes -9.42558
lfemur -25.9101 3.33536 -15.0588
ltibia 29.2396
lfoot 13.0011 -1.92128
ltoes -27.4402
86
root 5.34233 22.5948 16.6971 6.64287 -7.94847 360.916
lowerback 2.8378 0.343267 1.85107
upperback 8.35706 0.372383 0.615355
thorax 7.12873 0.272755 -0.379355
lowerneck -5.78574 -1.09321 0.494605
upperneck 3.15796 -1.37758 -2.67291
head 1.95774 -0.751677 -0.975768
rclavicle -1.03368e-014 -2.14687e-014
rhumerus -38.303 -22.1391 -77.8446
rradius 78.596
rwrist -15.6823
rhand -12.3389 14.1439
rfingers 7.12502
rthumb 13.7304 -15.3831
lclavicle -1.03368e-014 -2.14687e-014
lhumerus -36.4844 -9.57646 88.9149
lradius 69.083
lwrist 36.4074
lhand -32.6414 -12.8616
lfingers 7.12502
lthumb -5.86801 17.0371
rfemur -28.5951 4.37258 13.5067
rtibia 33.4787
rfoot 15.6559 13.0294
rtoes -9.5343
lfemur -26.8118 3.16925 -14.778
ltibia 29.4287
lfoot 12.9451 -1.66016
ltoes -27.0659
87
root 5.36002 22.384 16.8797 7.07668 -7.89375 360.879
lowerback 2.47573 0.362399 1.94898
upperback 8.42597 0.38687 0.60338
thorax 7.41476 0.289262 -0.442773
lowerneck -5.98645 -1.10035 0.634474
upperneck 2.51249 -1.41095 -2.69108
head 1.78217 -0.764617 -1.00195
rclavicle -1.07344e-014 7.95139e-015
rhumerus -38.3992 -22.6743 -78.0611
rradius 76.9803
rwrist -15.7084
rhand -12.1281 14.3674
rfingers 7.12502
rthumb 13.9336 -15.1457
lclavicle -1.07344e-014 7.95139e-015
lhumerus -36.5613 -9.76543 89.5225
lradius 67.4713
lwrist 37.0974
lhand -32.4494 -12.7535
lfingers 7.12502
lthumb -5.68263 17.1504
rfemur -29.2158 4.78041 13.2581
rtibia 33.5399
rfoot 16.3548 13.0443
rtoes -9.91549
lfemur -27.7943 2.88093 -14.4062
ltibia 29.7694
lfoot 12.9132 -1.213
ltoes -25.9411
